<mxfile host="app.diagrams.net" modified="2024-03-07T10:04:44.223Z" agent="Mozilla/5.0 (Windows NT 10.0; Win64; x64) AppleWebKit/537.36 (KHTML, like Gecko) Chrome/122.0.0.0 Safari/537.36" etag="k1EAlu0agD36hi7R4Joo" version="24.0.2" type="device">
  <diagram name="Page-1" id="lTZZgf8oQ4sOLE0PfGnI">
    <mxGraphModel dx="1728" dy="915" grid="1" gridSize="10" guides="1" tooltips="1" connect="1" arrows="1" fold="1" page="1" pageScale="1" pageWidth="850" pageHeight="1100" math="0" shadow="0">
      <root>
        <mxCell id="0" />
        <mxCell id="1" parent="0" />
        <mxCell id="i3Ah8RGKBJtAsOZOev2p-5" style="edgeStyle=orthogonalEdgeStyle;rounded=0;orthogonalLoop=1;jettySize=auto;html=1;exitX=1;exitY=0.5;exitDx=0;exitDy=0;entryX=0;entryY=0.5;entryDx=0;entryDy=0;" edge="1" parent="1" source="i3Ah8RGKBJtAsOZOev2p-1" target="i3Ah8RGKBJtAsOZOev2p-2">
          <mxGeometry relative="1" as="geometry" />
        </mxCell>
        <mxCell id="i3Ah8RGKBJtAsOZOev2p-1" value="Machine Box" style="swimlane;whiteSpace=wrap;html=1;" vertex="1" parent="1">
          <mxGeometry x="150" y="430" width="216.25" height="200" as="geometry" />
        </mxCell>
        <mxCell id="i3Ah8RGKBJtAsOZOev2p-7" value="Microcontroller&lt;div&gt;Relaiscard for Machine Components&lt;/div&gt;&lt;div&gt;Inputs&lt;/div&gt;&lt;div&gt;Antenna&lt;/div&gt;" style="text;html=1;align=center;verticalAlign=middle;resizable=0;points=[];autosize=1;strokeColor=none;fillColor=none;" vertex="1" parent="i3Ah8RGKBJtAsOZOev2p-1">
          <mxGeometry x="-3.75" y="40" width="220" height="70" as="geometry" />
        </mxCell>
        <mxCell id="i3Ah8RGKBJtAsOZOev2p-2" value="Compartment Box" style="swimlane;whiteSpace=wrap;html=1;fillColor=#d5e8d4;strokeColor=#82b366;" vertex="1" parent="1">
          <mxGeometry x="580" y="430" width="210" height="200" as="geometry" />
        </mxCell>
        <mxCell id="i3Ah8RGKBJtAsOZOev2p-8" value="&lt;div&gt;Relais for Compartments&lt;/div&gt;&lt;div&gt;Shiftregister Card&lt;/div&gt;" style="text;html=1;align=center;verticalAlign=middle;resizable=0;points=[];autosize=1;strokeColor=#82b366;fillColor=#d5e8d4;" vertex="1" parent="i3Ah8RGKBJtAsOZOev2p-2">
          <mxGeometry x="25" y="55" width="160" height="40" as="geometry" />
        </mxCell>
        <mxCell id="i3Ah8RGKBJtAsOZOev2p-4" style="edgeStyle=orthogonalEdgeStyle;rounded=0;orthogonalLoop=1;jettySize=auto;html=1;" edge="1" parent="1" source="i3Ah8RGKBJtAsOZOev2p-3" target="i3Ah8RGKBJtAsOZOev2p-1">
          <mxGeometry relative="1" as="geometry" />
        </mxCell>
        <mxCell id="i3Ah8RGKBJtAsOZOev2p-3" value="Loads" style="swimlane;whiteSpace=wrap;html=1;" vertex="1" parent="1">
          <mxGeometry x="158.13" y="80" width="200" height="200" as="geometry" />
        </mxCell>
        <mxCell id="i3Ah8RGKBJtAsOZOev2p-6" value="24V&lt;div&gt;5V&lt;br&gt;&lt;div&gt;Motor&lt;/div&gt;&lt;/div&gt;" style="text;html=1;align=center;verticalAlign=middle;resizable=0;points=[];autosize=1;strokeColor=none;fillColor=none;" vertex="1" parent="i3Ah8RGKBJtAsOZOev2p-3">
          <mxGeometry x="75" y="40" width="50" height="60" as="geometry" />
        </mxCell>
      </root>
    </mxGraphModel>
  </diagram>
</mxfile>
